<?xml version="1.0" encoding="iso-8859-1"?>
<!-- Generator: Adobe Illustrator 19.0.0, SVG Export Plug-In . SVG Version: 6.00 Build 0)  -->
<svg xmlns="http://www.w3.org/2000/svg" xmlns:xlink="http://www.w3.org/1999/xlink" version="1.1" id="Capa_1" x="0px" y="0px" viewBox="0 0 512 512" style="enable-background:new 0 0 512 512;" xml:space="preserve" width="512" height="512">
<g>
	<path style="fill:#F6D190;" d="M400.82,319.022L280.472,198.675l25.076-16.818l-24.774-24.774   c-21.746-21.746-54.206-26.146-80.361-13.331l-35.252-36.218L49.549,223.147l94.968,94.968L133.205,354.2l91.49,91.49   c9.906,9.906,27.466,11.436,37.877,2.062c11.486-10.342,11.834-28.05,1.045-38.839l6.57,6.57   c9.906,9.907,27.467,11.438,37.878,2.063c11.486-10.342,11.834-28.05,1.045-38.84l6.963,6.963   c9.906,9.906,27.466,11.437,37.877,2.063c11.486-10.342,11.834-28.05,1.045-38.839l6.905,6.905   c9.906,9.906,27.465,11.436,37.876,2.062C411.261,347.519,411.609,329.811,400.82,319.022z"/>
	<path style="fill:#ECBD83;" d="M300.787,421.996L154.782,275.991c-32.25-32.25-32.25-84.537,0-116.787l30.746-30.746   l-20.366-20.924L49.549,223.147l94.968,94.968L133.205,354.2l91.491,91.491c9.878,9.878,27.409,11.433,37.817,2.114   c11.464-10.263,11.877-27.824,1.298-38.652l6.429,6.425C278.085,423.425,290.693,425.914,300.787,421.996z"/>
	<path style="fill:#D19A6E;" d="M102.758,361.602L102.758,361.602c-10.452-10.452-10.452-27.397,0-37.849l15.54-15.54   c10.452-10.452,27.397-10.452,37.849,0l0,0c10.452,10.452,10.452,27.397,0,37.849l-15.54,15.54   C130.155,372.054,113.209,372.054,102.758,361.602z"/>
	<path style="fill:#D19A6E;" d="M140.607,399.451L140.607,399.451c-10.452-10.452-10.452-27.397,0-37.849l8.154-8.154   c10.452-10.452,27.397-10.452,37.849,0l0,0c10.452,10.452,10.452,27.397,0,37.849l-8.154,8.154   C168.004,409.903,151.058,409.903,140.607,399.451z"/>
	<path style="fill:#D19A6E;" d="M183.187,432.569L183.187,432.569c-10.452-10.452-10.452-27.397,0-37.849l0,0   c10.452-10.452,27.397-10.452,37.849,0l0,0c10.452,10.452,10.452,27.397,0,37.849l0,0   C210.584,443.021,193.639,443.021,183.187,432.569z"/>
	<path style="fill:#D19A6E;" d="M347.621,108.316l-33.663,33.663c-25.31-13.534-57.383-9.892-78.728,11.453l-42.365,42.365   c-10.452,10.452-10.452,27.397,0,37.849v0.001c10.452,10.452,27.398,10.452,37.849,0l30.686-30.686c6.45-6.45,16.907-6.45,23.357,0   l98.94,98.941l91.141-91.141L347.621,108.316z"/>
	<path style="fill:#C38C66;" d="M474.839,210.76l-114.28-92.025l-12.939-10.419l-33.663,33.663   c-25.31-13.534-57.383-9.892-78.728,11.453l-42.365,42.365c-7.883,7.883-9.817,19.467-5.808,29.166l59.852-59.852   c11.999-11.999,29.069-17.119,46.423-13.378c4.775,1.029,9.335,2.936,13.642,5.24l0.006,0.003   c5.935,3.174,13.249,2.09,18.008-2.669l0.649-0.649v0c7.67-7.67,20.105-7.67,27.774,0l89.266,89.266L474.839,210.76z"/>
	<path style="fill:#DBEAFF;" d="M177.013,100.199l-39.794-39.794c-3.225-3.225-8.454-3.225-11.679,0L2.419,183.525   c-3.225,3.225-3.225,8.454,0,11.678l39.794,39.794c3.225,3.225,8.454,3.225,11.678,0l123.121-123.12   C180.237,108.652,180.237,103.424,177.013,100.199z"/>
	<path style="fill:#C3DDFF;" d="M38.872,206.882c-9.675-9.675-9.675-25.361,0-35.036L143.766,66.952l-6.548-6.547   c-3.225-3.225-8.454-3.225-11.679,0L2.419,183.525c-3.225,3.225-3.225,8.454,0,11.678l39.794,39.794   c3.225,3.225,8.454,3.225,11.678,0l6.548-6.548L38.872,206.882z"/>
	<path style="fill:#CCF49F;" d="M509.581,195.203l-39.794,39.794c-3.225,3.225-8.454,3.225-11.679,0l-123.12-123.12   c-3.225-3.225-3.225-8.454,0-11.678l39.794-39.794c3.225-3.225,8.454-3.225,11.678,0l123.121,123.12   C512.806,186.75,512.806,191.979,509.581,195.203z"/>
	<path style="fill:#B3E59F;" d="M371.441,88.52c-9.675,9.675-9.675,25.361,0,35.036L476.335,228.45l-6.548,6.547   c-3.225,3.225-8.454,3.225-11.679,0l-123.12-123.12c-3.225-3.225-3.225-8.454,0-11.678l39.794-39.794   c3.225-3.225,8.454-3.225,11.678,0l6.548,6.548L371.441,88.52z"/>
	<path style="fill:#ECBD83;" d="M292.768,350.31L292.768,350.31c-3.334,3.334-3.334,8.739,0,12.073l23.304,23.288   c7.845,7.846,20.532,10.414,30.626,6.496l-41.857-41.857C301.507,346.976,296.102,346.976,292.768,350.31z"/>
	<path style="fill:#ECBD83;" d="M338.677,320.536L338.677,320.536c-3.334,3.334-3.334,8.739,0,12.073l23.304,23.288   c7.845,7.846,20.443,10.325,30.537,6.407l-41.768-41.768C347.416,317.202,342.011,317.202,338.677,320.536z"/>
	<path style="fill:#C38C66;" d="M116.353,337.348l15.54-15.54c8.048-8.048,19.982-9.849,29.801-5.502   c-1.298-2.933-3.144-5.689-5.547-8.093c-10.452-10.452-27.397-10.452-37.849,0l-15.54,15.54c-10.452,10.452-10.452,27.398,0,37.849   c2.404,2.404,5.262,4.296,8.195,5.594C106.607,357.377,108.305,345.396,116.353,337.348z"/>
	<path style="fill:#C38C66;" d="M154.202,375.198l8.154-8.155c8.048-8.048,20.019-9.789,29.838-5.443   c-1.298-2.933-3.18-5.749-5.584-8.152h-0.001c-10.452-10.452-27.397-10.452-37.849,0l-8.154,8.154   c-10.452,10.452-10.452,27.398,0,37.849c2.404,2.404,5.248,4.298,8.181,5.596C144.442,395.229,146.154,383.246,154.202,375.198z"/>
	<path style="fill:#C38C66;" d="M196.782,408.316c8.048-8.048,20.081-9.673,29.9-5.327c-1.298-2.932-3.242-5.865-5.646-8.268   c-10.452-10.452-27.398-10.452-37.849,0c-10.452,10.452-10.452,27.398,0,37.849c2.404,2.404,5.271,4.305,8.204,5.603   C187.044,428.353,188.734,416.364,196.782,408.316z"/>
	<path style="fill:#C38C66;" d="M395.096,290.502l-82.831-82.831c-6.295-6.295-16.501-6.295-22.796,0v0l94.229,94.229   L395.096,290.502z"/>
</g>















</svg>
